<?xml version="1.0" encoding="utf-8"?>
<!-- Generator: Adobe Illustrator 16.0.0, SVG Export Plug-In . SVG Version: 6.00 Build 0)  -->
<svg version="1.2" baseProfile="tiny" 
	 xmlns="http://www.w3.org/2000/svg" xmlns:xlink="http://www.w3.org/1999/xlink" x="0px" y="0px" width="100px" height="100px"
	 viewBox="0 0 100 100" xml:space="preserve">
<path id="logo" fill="none" stroke="#000000" stroke-linecap="round" stroke-linejoin="round" d="M58.092,55.01
	c5.685-2.412,8.814-8.565,7.426-14.582C63.33,30.542,54.346,23.662,44.229,24.14c-8.159,0.17-15.656,4.521-19.855,11.518
	c-3.412,5.172-5.217,10.377-5.734,16.553c-0.192,7.297,2.138,14.494,6.376,20.395c3.994,5.561,10.333,10.52,16.547,13.285
	c13.491,6.002,29.179,4.248,40.951-4.711c5.453-4.152,10.466-10.531,13.213-16.811c0.729-1.664,1.338-3.359,1.836-5.107
	c0.247-0.865,0.464-1.736,0.651-2.617c0.055-0.256,0.124-0.43,0.416-0.482c0.287-0.051,0.437,0.035,0.539,0.307
	c0.064,0.172-0.105,1.148-0.13,1.301c-0.565,3.574-1.5,6.979-2.841,10.34c-5.439,13.633-16.785,24.053-30.834,28.313
	c-7.203,2.182-14.023,2.656-21.46,1.486c-3.472-0.545-6.789-1.533-10.112-2.615c-3.344-1.092-6.474-2.506-9.5-4.295
	C11.477,83.42,2.927,70.307,1.155,55.525c-1.752-14.63,3.309-29.209,13.739-39.612c5.357-5.344,11.18-8.968,18.341-11.415
	c6.908-2.361,13.493-3.637,20.898-2.74c14.609,1.771,27.078,11.262,32.695,24.86c5.655,13.688,3.44,29.366-5.783,40.956
	c-0.263,0.328-0.531,0.656-0.804,0.977c-0.136,0.16-0.24,0.342-0.413,0.475c-0.271,0.207-0.309-0.145-0.136-0.377
	c0.513-0.686,1-1.389,1.462-2.111c0.952-1.49,1.782-3.031,2.501-4.648c1.518-3.41,2.439-6.848,2.834-10.559
	c0.776-7.269-0.732-14.59-4.323-20.959c-7.329-12.999-22.075-19.926-36.76-17.273c-1.829,0.331-3.456,0.934-5.032,1.927
	c-0.383,0.242-0.752,0.499-1.109,0.776c-0.117,0.09,0.145-0.026,0.216-0.048c0.103-0.033,0.206-0.064,0.31-0.095
	c0.208-0.062,0.416-0.123,0.625-0.18c0.849-0.234,1.703-0.432,2.569-0.592c3.68-0.683,7.197-0.698,10.884-0.047
	c7.177,1.267,13.655,5.053,18.283,10.683c4.685,5.698,7.15,12.896,6.945,20.268c-0.204,7.442-2.767,13.844-8.476,18.858
	c-5.452,4.789-12.86,7.027-20.054,6.01c-7.396-1.045-13.152-6.934-14.031-14.352c-0.217-1.838-0.135-3.594,0.255-5.405
	c0.38-1.764,0.841-3.426,1.824-4.993c1.964-3.131,5.444-4.984,9.139-4.866c4.468,0.143,6.529,2.523,5.782,6.969
	c-0.279,1.664-1.365,3.718-0.085,5.535c0.355,0.506,1.38,1.189,1.935,1.404C56.324,55.309,57.14,55.326,58.092,55.01z"/>
</svg>
